<svg width="474" height="396" viewBox="0 0 474 396" fill="none" xmlns="http://www.w3.org/2000/svg">
<path d="M237.15 395.231C367.588 395.231 473.328 381.509 473.328 364.584C473.328 347.658 367.588 333.937 237.15 333.937C106.713 333.937 0.972168 347.658 0.972168 364.584C0.972168 381.509 106.713 395.231 237.15 395.231Z" fill="#F5F5F5"/>
<path d="M427.878 283.76L191.042 248.832C183.947 247.786 179.044 241.186 180.09 234.091L205.406 62.4276C206.452 55.3326 213.052 50.4296 220.147 51.4756L456.983 86.4036C464.078 87.4496 468.981 94.0496 467.935 101.145L442.619 272.808C441.573 279.903 434.973 284.806 427.878 283.76Z" fill="#F5F5F5"/>
<path d="M416.27 267.252L178.738 297.082C171.622 297.976 165.13 292.932 164.236 285.816L142.614 113.648C141.72 106.532 146.764 100.039 153.88 99.1456L391.412 69.3156C398.528 68.4216 405.021 73.4655 405.914 80.5815L427.536 252.75C428.43 259.865 423.386 266.358 416.27 267.252Z" fill="#F5F5F5"/>
<path d="M183.688 283.721C182.607 283.857 181.62 283.09 181.485 282.009L161.485 122.754C161.349 121.673 162.116 120.686 163.197 120.55C164.278 120.414 165.265 121.181 165.401 122.262L185.401 281.517C185.535 282.599 184.769 283.585 183.688 283.721Z" fill="#D6D6D6"/>
<path d="M208.34 280.078C207.259 280.214 206.272 279.447 206.136 278.366L186.136 119.111C186 118.03 186.767 117.043 187.848 116.908C188.929 116.772 189.916 117.539 190.051 118.62L210.051 277.875C210.188 278.956 209.421 279.942 208.34 280.078Z" fill="#D6D6D6"/>
<path d="M232.993 276.437C231.912 276.573 230.925 275.806 230.789 274.725L210.789 115.47C210.653 114.389 211.42 113.402 212.501 113.266C213.582 113.13 214.569 113.897 214.704 114.978L234.704 274.233C234.841 275.314 234.074 276.301 232.993 276.437Z" fill="#D6D6D6"/>
<path d="M257.644 272.793C256.563 272.929 255.576 272.162 255.44 271.081L235.44 111.826C235.304 110.745 236.071 109.758 237.152 109.622C238.233 109.486 239.22 110.253 239.356 111.334L259.356 270.589C259.492 271.671 258.726 272.657 257.644 272.793Z" fill="#D6D6D6"/>
<path d="M282.297 269.151C281.216 269.287 280.229 268.52 280.094 267.439L260.094 108.184C259.958 107.103 260.725 106.116 261.806 105.981C262.887 105.845 263.874 106.612 264.009 107.693L284.009 266.948C284.144 268.029 283.378 269.015 282.297 269.151Z" fill="#D6D6D6"/>
<path d="M306.95 265.509C305.869 265.645 304.882 264.878 304.747 263.797L284.747 104.542C284.611 103.461 285.378 102.474 286.459 102.338C287.54 102.202 288.527 102.969 288.662 104.05L308.662 263.305C308.797 264.387 308.031 265.374 306.95 265.509Z" fill="#D6D6D6"/>
<path d="M331.601 261.866C330.52 262.002 329.533 261.235 329.398 260.154L309.398 100.899C309.262 99.8183 310.029 98.8313 311.11 98.6953C312.191 98.5593 313.178 99.3263 313.313 100.407L333.313 259.662C333.449 260.744 332.682 261.73 331.601 261.866Z" fill="#D6D6D6"/>
<path d="M356.253 258.225C355.172 258.361 354.185 257.594 354.05 256.513L334.05 97.2577C333.914 96.1767 334.681 95.1897 335.762 95.0547C336.843 94.9187 337.83 95.6857 337.965 96.7667L357.965 256.022C358.101 257.103 357.334 258.089 356.253 258.225Z" fill="#D6D6D6"/>
<path d="M380.905 254.581C379.824 254.717 378.837 253.95 378.701 252.869L358.701 93.6141C358.565 92.5331 359.332 91.5461 360.413 91.4111C361.494 91.2751 362.481 92.0421 362.616 93.1231L382.616 252.378C382.753 253.459 381.987 254.446 380.905 254.581Z" fill="#D6D6D6"/>
<path d="M405.558 250.94C404.477 251.076 403.49 250.309 403.355 249.228L383.355 89.9725C383.219 88.8915 383.986 87.9046 385.067 87.7686C386.148 87.6326 387.135 88.3995 387.27 89.4805L407.27 248.736C407.405 249.818 406.639 250.804 405.558 250.94Z" fill="#D6D6D6"/>
<path d="M200.575 93.281L388.331 68.776C397.78 67.543 406.401 74.304 407.456 83.774L416.431 164.325" stroke="#262626" stroke-width="0.4147" stroke-miterlimit="10" stroke-linecap="round" stroke-linejoin="round"/>
<path d="M448.476 359.203L209.691 346.794C202.449 346.418 196.884 340.242 197.26 333L206.482 155.535C206.858 148.293 213.034 142.728 220.276 143.104L459.061 155.513C466.303 155.889 471.868 162.065 471.492 169.307L462.269 346.772C461.894 354.014 455.718 359.579 448.476 359.203Z" fill="#F5F5F5"/>
<path d="M448.476 359.203L209.691 346.794C202.449 346.418 196.884 340.242 197.26 333L206.482 155.535C206.858 148.293 213.034 142.728 220.276 143.104L459.061 155.513C466.303 155.889 471.868 162.065 471.492 169.307L462.269 346.772C461.894 354.014 455.718 359.579 448.476 359.203Z" stroke="#262626" stroke-width="0.4147" stroke-miterlimit="10" stroke-linecap="round" stroke-linejoin="round"/>
<path d="M248.994 164.326L222.648 130.249C219.807 126.575 215.449 124.369 211.029 124.369H142.971C135.662 124.369 130.358 130.294 131.123 137.603L133.922 164.326L134.027 165.326L153.387 350.147C154.153 357.456 160.698 363.381 168.007 363.381H438.711C446.02 363.381 451.324 357.456 450.559 350.147L432.481 177.56C431.715 170.251 425.17 164.326 417.861 164.326H248.994Z" fill="#FFC001"/>
<path d="M282.768 288.345C281.272 282.634 280.504 278.035 280.462 274.551C280.421 271.067 281.277 267.872 283.034 264.968C284.03 263.225 285.282 261.726 286.793 260.467C288.302 259.21 289.647 257.878 290.829 256.474C292.009 255.072 292.903 253.497 293.513 251.755C294.121 250.013 294.059 247.739 293.324 244.931C292.082 240.189 289.907 236.872 286.799 234.985C283.691 233.097 280.345 232.153 276.765 232.153C271.633 232.153 268.475 233.583 267.287 236.437C266.098 239.293 265.895 243.141 266.68 247.981H247.95C246.708 243.239 246.353 238.931 246.889 235.058C247.423 231.187 248.764 227.895 250.91 225.184C253.055 222.475 255.946 220.392 259.584 218.941C263.219 217.489 267.458 216.763 272.299 216.763C282.753 216.763 291.562 218.893 298.729 223.152C305.893 227.413 310.732 234.332 313.242 243.916C314.054 247.015 314.447 249.724 314.428 252.047C314.406 254.37 314.013 256.476 313.251 258.363C312.486 260.25 311.399 262.018 309.992 263.663C308.583 265.31 306.946 267.003 305.079 268.745C303.38 270.392 302.061 271.917 301.122 273.319C300.183 274.723 299.576 276.2 299.306 277.748C299.034 279.297 299.023 280.92 299.273 282.612C299.522 284.307 299.928 286.22 300.485 288.347H282.768V288.345ZM289.527 316.369L284.546 297.348H304.147L309.128 316.369H289.527Z" fill="#E8A600"/>
<path d="M133.922 164.326L134.027 165.326" stroke="#262626" stroke-width="0.4657" stroke-miterlimit="10" stroke-linecap="round" stroke-linejoin="round"/>
<path d="M450.559 350.146L432.481 177.56C431.715 170.251 425.17 164.326 417.861 164.326H248.994L222.648 130.249C219.807 126.575 215.449 124.369 211.029 124.369H142.971" stroke="#262626" stroke-width="0.4657" stroke-miterlimit="10" stroke-linecap="round" stroke-linejoin="round"/>
<path d="M115.873 195.415V203.095C115.873 203.095 128.408 255.681 130.854 262.713C133.3 269.745 122.293 337.465 122.293 337.465H85.6061L90.2621 262.102L50.3131 332.502L17.5371 313.159C17.5371 313.159 49.4151 253.187 50.3131 242.358C51.2111 231.528 48.0001 181.645 48.0001 181.645L115.873 195.415Z" fill="#3897E9"/>
<path d="M67.7261 185.646C67.7261 185.646 71.4421 238.264 68.8051 247.512C66.1681 256.76 35.1211 323.536 35.1211 323.536" stroke="#262626" stroke-width="0.4147" stroke-miterlimit="10" stroke-linecap="round" stroke-linejoin="round"/>
<path d="M90.2374 260.961C88.6934 286.462 87.1504 311.963 85.6064 337.464H101.71L95.9404 247.512C95.6094 249.754 94.8984 252.788 93.2834 256.073C92.3124 258.049 91.2304 259.673 90.2374 260.961Z" fill="#1775AF"/>
<path d="M84.3264 217.237L78.3934 212.906H81.2764C83.0814 212.906 84.3634 211.148 83.8114 209.429C83.6794 209.017 83.2954 208.738 82.8624 208.731C81.0214 208.699 79.4834 208.615 78.3444 208.535C75.6354 208.345 74.2564 208.242 73.0804 207.823C71.1504 207.136 70.8884 206.448 68.9144 205.759C67.7194 205.342 66.6224 205.18 65.7244 205.124C61.3364 201.363 57.7614 197.162 55.2024 192.552L49.7224 212.677C49.5804 212.646 49.9014 214.524 49.8104 214.595C52.8644 216.077 55.3684 216.847 58.0904 217.779C58.3664 218.843 58.8134 220.034 59.5524 221.237C60.6984 223.102 61.9824 224.085 64.4064 225.938C64.8884 226.307 64.5184 226.002 70.5154 229.294C71.0764 229.602 72.1334 230.183 72.8904 229.76C73.5194 229.408 73.7504 228.468 73.7694 228.384C73.8724 227.943 73.8324 227.565 73.7884 227.333C73.9264 227.447 74.1374 227.6 74.4184 227.731C75.1774 228.084 76.5774 228.332 77.4194 227.505C78.1624 226.774 78.0314 225.633 78.0014 225.367C77.9484 224.899 77.7924 224.532 77.6684 224.295L78.7344 224.721C79.4944 225.025 80.3594 224.905 81.0084 224.406C82.2274 223.468 82.2124 221.625 80.9774 220.708L80.6104 220.435L82.6534 220.905C83.4354 221.085 84.2504 220.794 84.7414 220.16C85.4504 219.242 85.2634 217.92 84.3264 217.237Z" fill="#1775AF"/>
<path d="M113.682 108.392C113.682 108.392 141.919 164.178 145.095 170.602C148.271 177.026 171.468 203.034 171.468 203.034L156.814 212.671C150.56 207.381 144.306 202.09 138.052 196.8C133.952 193.127 129.851 188.911 125.929 184.069C103.564 156.458 99.8775 124.384 99.4585 106.623L113.682 108.392Z" fill="#F7A99C"/>
<path d="M136.03 152.588C135.51 156.368 134.306 161.857 131.289 167.85C128.784 172.826 125.009 177.282 122.656 179.816C122.247 179.436 120.875 178.071 120.569 175.818C120.306 173.88 120.982 172.395 121.257 171.863L133.009 145.78L136.03 152.588Z" fill="#FF7769"/>
<path d="M86.9491 69.4902C85.0771 71.4272 83.3321 72.5232 82.0521 73.1732C78.5811 74.9352 76.4941 77.6182 75.6641 81.5002C74.9911 84.6452 75.2381 87.9642 76.2811 91.0012C76.8111 92.5432 77.5471 94.0162 78.4751 95.3582C79.3801 96.6682 80.3091 97.6982 79.8471 99.4382C79.2281 101.773 76.0801 102.509 74.4891 104.057C72.5241 105.969 71.4761 108.745 71.3761 111.457C71.3151 113.113 71.5781 114.819 72.4111 116.252C73.4431 118.028 75.2021 119.163 76.9341 120.173C78.7971 121.259 80.6061 122.44 82.5181 123.438" stroke="#262626" stroke-width="0.4147" stroke-miterlimit="10" stroke-linecap="round" stroke-linejoin="round"/>
<path d="M117.9 70.9492C119.714 72.7792 121.632 74.8232 121.883 77.3872C121.986 78.4362 121.794 79.4922 121.522 80.5112C121.025 82.3682 120.258 84.1452 119.789 86.0092C119.426 87.4502 119.246 88.9752 119.596 90.4192C119.913 91.7282 120.65 92.9002 121.503 93.9422C123.93 96.9102 126.72 98.9682 127.285 103.011C127.593 105.212 127.337 107.454 126.939 109.64C126.692 110.998 126.368 112.394 125.529 113.49C123.984 115.51 121.073 116.202 118.707 116.682" stroke="#262626" stroke-width="0.4147" stroke-miterlimit="10" stroke-linecap="round" stroke-linejoin="round"/>
<path d="M100.064 66.5327C98.1793 66.5217 96.5383 66.5757 95.9323 66.6317C88.0803 67.3537 80.7333 71.7707 78.4143 79.6177C77.3513 83.2147 77.5473 86.2597 77.8913 87.9437C78.7793 92.2897 81.7013 93.9247 80.9563 97.0987C80.8043 97.7457 80.6083 98.0197 79.1143 100.173C75.7063 105.084 73.9983 107.548 73.8403 107.969C72.3573 111.926 73.8853 116.704 76.2103 119.558C77.6673 121.347 79.7303 122.894 82.5343 123.867C87.4293 125.566 102.269 131.487 115.802 123.408C119.153 121.408 124.659 118.121 126.121 111.943C127.922 104.332 122.523 96.8237 121.688 95.6627C119.701 92.8997 119.266 93.5497 118.172 91.6117C115.891 87.5727 117.138 83.1927 118.309 79.0317C119.448 74.9847 119.022 72.7657 118.301 71.5077C116.417 68.2207 111.326 67.5127 107.223 66.9417C104.448 66.5577 101.234 66.5397 100.064 66.5327Z" fill="#262626"/>
<path d="M103.808 107.428C113.805 110.979 119.702 116.35 122.644 119.511C127.799 125.05 130.954 131.4 133.306 136.135C134.858 139.258 135.983 141.963 136.745 143.931L120.276 179.816L103.808 107.428Z" fill="#FDB6D6"/>
<path d="M89.8065 107.23H103.808C103.808 107.23 122.419 120.885 126.486 132.808C130.554 144.732 115.811 197.944 115.811 197.944C105.738 198.209 93.9815 197.803 80.9955 195.995C63.1195 193.506 47.9775 189.066 36.0825 184.63C38.6735 172.421 41.3925 162.174 43.6495 154.362C50.0095 132.349 53.8935 125.526 59.4715 119.967C64.6455 114.812 69.8035 112.212 71.3765 111.457C78.9055 107.84 85.8255 107.261 89.8065 107.23Z" fill="#FDB6D6"/>
<path d="M115.803 123.408C115.803 123.408 116.462 151.665 113.863 161.907C111.264 172.149 104.628 197.945 104.628 197.945H115.812C115.812 197.945 121.888 175.13 122.347 169.397C122.806 163.665 123.433 153.805 122.661 149.563C121.889 145.321 120.309 136.31 119.265 132.618C118.219 128.926 115.803 123.408 115.803 123.408Z" fill="#FF97CB"/>
<path d="M67.7263 158.339C66.1563 159.236 60.8653 162.52 58.6013 169.169C55.0413 179.627 62.7333 192.211 63.1723 192.732L39.3403 186.825C39.3403 186.825 39.9513 169.857 41.8623 163.589C43.7733 157.321 53.0223 147.257 53.0223 147.257L67.7263 158.339Z" fill="#FF97CB"/>
<path d="M96.8365 114.208C92.9685 114.223 89.8215 111.099 89.8075 107.232L89.7505 92.1624L103.756 92.1094L103.813 107.179C103.827 111.046 100.703 114.193 96.8365 114.208Z" fill="#F7A99C"/>
<path d="M103.796 102.96L94.6753 98.2744C94.7673 99.0644 95.2863 102.763 98.5393 105.318C100.616 106.949 102.8 107.322 103.808 107.428L103.796 102.96Z" fill="#FF7769"/>
<path d="M89.4094 87.4931C89.3654 87.2651 88.7654 86.9211 88.5804 86.8041C88.2694 86.6051 87.9324 86.4461 87.5804 86.3331C86.8974 86.1131 86.1464 86.0621 85.4444 86.2231C84.0484 86.5431 82.8104 87.7161 82.5774 89.1531C82.4424 89.9881 82.6354 90.8511 82.9934 91.6171C83.5314 92.7691 84.4434 93.7371 85.5444 94.3721C86.4574 94.8981 87.4964 95.1951 88.5464 95.2581C88.7564 95.2711 90.9094 95.2211 90.8934 95.1381C90.3994 92.5891 89.9044 90.0411 89.4094 87.4931Z" fill="#F7A99C"/>
<path d="M87.4904 87.6395C87.6564 88.7645 88.6444 94.6945 93.9904 98.8845C94.9754 99.6565 101.521 104.788 107.511 102.284C115.208 99.0655 114.368 86.4235 114.314 85.7385C114.131 83.4235 113.59 76.6065 107.945 72.9695C103.337 70.0015 98.3455 71.0925 97.6375 71.2595C96.8915 71.4345 92.1384 72.6345 89.2294 77.2945C86.5884 81.5235 87.2184 85.7995 87.4904 87.6395Z" fill="#F7A99C"/>
<path d="M109.945 85.7473C110.069 86.7343 110.83 87.4513 111.645 87.3493C112.46 87.2473 113.02 86.3643 112.896 85.3773C112.772 84.3903 112.011 83.6733 111.196 83.7753C110.381 83.8773 109.821 84.7603 109.945 85.7473Z" fill="#262626"/>
<path d="M101.051 86.8645C101.175 87.8515 101.936 88.5685 102.751 88.4665C103.566 88.3645 104.126 87.4815 104.002 86.4945C103.878 85.5075 103.117 84.7905 102.302 84.8925C101.487 84.9945 100.927 85.8775 101.051 86.8645Z" fill="#262626"/>
<path d="M107.26 87.2236L108.624 89.0656C108.875 89.4046 108.781 89.8846 108.421 90.1036L107.169 90.8656" stroke="#262626" stroke-width="0.733" stroke-miterlimit="10" stroke-linecap="round" stroke-linejoin="round"/>
<path d="M98.0682 91.5134C98.2072 92.6204 99.2182 93.4064 100.325 93.2664C101.432 93.1264 102.218 92.1164 102.078 91.0094C101.939 89.9024 100.928 89.1164 99.8212 89.2564C98.7142 89.3954 97.9292 90.4054 98.0682 91.5134Z" fill="#FF7769"/>
<path d="M88.4703 92.557C88.4773 92.335 88.4963 90.831 87.2893 89.746C86.3443 88.896 85.2443 88.84 84.9443 88.835" stroke="#262626" stroke-width="0.733" stroke-miterlimit="10" stroke-linecap="round" stroke-linejoin="round"/>
<path d="M87.4065 90.0428C87.3395 90.0328 86.5305 89.9198 85.9655 90.5318C85.5005 91.0348 85.5435 91.6568 85.5525 91.7598" stroke="#262626" stroke-width="0.733" stroke-miterlimit="10" stroke-linecap="round" stroke-linejoin="round"/>
<path d="M87.3134 86.2581C87.3134 86.2581 88.3084 86.3461 89.0584 87.0911C89.8084 87.8351 90.0744 89.1101 90.0744 89.1101C91.9914 88.8771 96.3824 88.0681 100.365 84.6111C102.524 82.7371 103.842 80.7111 104.619 79.2501C105.345 79.9031 106.584 80.8841 108.337 81.6401C110.624 82.6261 113.481 83.0981 113.86 82.3301C113.93 82.1881 113.853 81.7761 113.697 80.9531C113.641 80.6551 113.582 80.2141 113.437 79.7921C113.154 78.9661 112.786 78.1691 112.347 77.4141C111.467 75.9041 110.296 74.5631 108.918 73.4881C108.023 72.7901 107.039 72.2041 105.993 71.7591C102.673 70.3471 98.0634 70.3461 94.0954 72.4621C94.0954 72.4621 89.6654 74.8251 87.7124 79.4491C87.0414 81.0381 86.8724 82.6271 86.8304 83.1781C86.7464 84.2691 86.8694 84.9821 87.0354 85.5301C87.1294 85.8401 87.2344 86.0881 87.3134 86.2581Z" fill="#262626"/>
<path d="M113.265 88.3169C113.648 88.2689 114.017 88.3379 114.345 88.4859C114.306 89.5709 114.202 90.8869 113.963 92.2829C113.898 92.2979 113.836 92.3189 113.769 92.3279C112.662 92.4669 111.651 91.6819 111.512 90.5749C111.372 89.4659 112.157 88.4559 113.265 88.3169Z" fill="#FF7769"/>
<path d="M107.966 93.6016L104.296 95.0996" stroke="#262626" stroke-width="0.733" stroke-miterlimit="10" stroke-linecap="round" stroke-linejoin="round"/>
<path d="M116.304 203.48L56.6404 219.348C52.1124 220.552 49.4174 225.199 50.6214 229.728C51.8254 234.256 56.4734 236.951 61.0014 235.746L120.088 220.032L116.304 203.48Z" fill="#1775AF"/>
<path d="M50.6225 227.728C49.4185 223.2 52.1125 218.553 56.6405 217.348L173.662 186.225L178.023 202.623L61.0015 233.747C56.4735 234.951 51.8265 232.257 50.6225 227.728Z" fill="#4450E4"/>
<path d="M84.3262 217.236L78.3932 212.905H81.2762C83.0812 212.905 84.3632 211.147 83.8112 209.428C83.6792 209.016 83.2952 208.737 82.8622 208.73C81.0212 208.698 79.4832 208.614 78.3442 208.534C75.6352 208.344 74.2562 208.241 73.0802 207.822C71.1502 207.135 70.8882 206.447 68.9142 205.758C67.7192 205.341 66.6222 205.179 65.7242 205.123C65.1462 204.628 64.5852 204.124 64.0362 203.614L56.5952 217.271C57.0892 217.438 57.5862 217.605 58.0902 217.778C58.3662 218.842 58.8132 220.033 59.5522 221.236C60.6982 223.101 61.9822 224.084 64.4062 225.937C64.8882 226.306 64.5182 226.001 70.5152 229.293C71.0762 229.601 72.1332 230.182 72.8902 229.759C73.5192 229.407 73.7502 228.467 73.7692 228.383C73.8722 227.942 73.8322 227.564 73.7882 227.332C73.9262 227.446 74.1372 227.599 74.4182 227.73C75.1772 228.083 76.5772 228.331 77.4192 227.504C78.1622 226.773 78.0312 225.632 78.0012 225.366C77.9482 224.898 77.7922 224.531 77.6682 224.294L78.7342 224.72C79.4942 225.024 80.3592 224.904 81.0082 224.405C82.2272 223.467 82.2122 221.624 80.9772 220.707L80.6102 220.434L82.6532 220.904C83.4352 221.084 84.2502 220.793 84.7412 220.159C85.4502 219.241 85.2632 217.919 84.3262 217.236Z" fill="#3041BF"/>
<path d="M68.6432 116.683C42.4472 127.9 24.5952 148.711 24.6182 169.957C24.6322 183.131 31.5182 194.834 33.7902 198.696C42.5792 213.634 59.9422 215.472 66.1682 218.927L73.2542 208.785C57.9192 198.983 48.4932 185.291 51.2162 168.123C54.6942 146.199 74.1462 136.315 76.0052 135.41L68.6432 116.683Z" fill="#F7A99C"/>
<path d="M39.8753 136.121L59.3083 149.384L55.7873 154.784C52.7793 153.854 48.5723 152.185 44.1553 149.106C40.2153 146.36 37.4143 143.403 35.5483 141.104C36.9913 139.442 38.4333 137.782 39.8753 136.121Z" fill="#FF7769"/>
<path d="M36.0835 134.49L67.7265 158.337C75.3985 142.571 81.3505 131.019 85.6115 122.948C87.4685 119.43 92.1955 110.531 89.3945 107.7C88.6775 106.975 86.5085 106.835 82.1715 106.553C78.7225 106.33 76.6745 106.208 73.9165 106.553C73.9165 106.553 70.6515 106.962 67.1145 108.196C61.7675 110.063 49.6455 119.415 36.0835 134.49Z" fill="#FDB6D6"/>
<path d="M92.9531 337.465V361.798H131.968L130.948 354.797C130.948 354.797 118.714 347.932 116.81 346.369C114.907 344.806 112.868 341.747 112.46 340.796C112.052 339.845 112.46 337.465 112.46 337.465H92.9531Z" fill="#F7A99C"/>
<path d="M90.9824 346.64C91.4584 346.508 92.1774 346.386 92.9534 346.606C94.9484 347.173 95.4724 349.484 96.3354 350.718L118.714 350.973C118.667 349.839 118.62 348.704 118.574 347.57C119.739 347.192 120.903 346.814 122.068 346.436C124.508 349.158 126.881 350.738 128.675 351.693C131.429 353.16 135 354.319 136.454 356.801C137.159 358.005 137.195 359.229 137.199 359.455C137.21 360.086 137.225 360.97 136.59 361.559C136.118 361.997 135.513 362.06 135.231 362.069C120.787 361.978 106.344 361.888 91.9004 361.797C91.3934 361.797 90.9824 361.386 90.9824 360.879V346.64Z" fill="#FFC001"/>
<path d="M135.28 364.584H92.7044C91.7534 364.584 90.9834 363.813 90.9834 362.863V360.954H137.001V362.863C137.001 363.814 136.23 364.584 135.28 364.584Z" fill="#5D1113"/>
<path d="M92.9531 337.465H112.461L112.29 339.895H92.9531V337.465Z" fill="#FF7769"/>
<path d="M24.0955 316.707L11.4995 337.526L44.8795 357.722L47.6315 351.204C47.6315 351.204 40.7175 338.997 39.8985 336.674C39.0795 334.351 38.9185 330.679 39.0615 329.653C39.2055 328.628 40.7855 326.804 40.7855 326.804L24.0955 316.707Z" fill="#F7A99C"/>
<path d="M17.6584 323.537C18.1344 323.67 18.8134 323.938 19.3624 324.528C20.7764 326.046 20.0284 328.295 20.1264 329.797L39.1414 341.6C39.6884 340.605 40.2354 339.61 40.7834 338.616C41.9754 338.896 43.1674 339.175 44.3594 339.455C45.0384 343.047 46.2514 345.627 47.2904 347.373C48.8874 350.053 51.3424 352.894 51.3014 355.771C51.2814 357.167 50.6784 358.232 50.5654 358.427C50.2484 358.972 49.8034 359.737 48.9554 359.912C48.3244 360.042 47.7754 359.783 47.5284 359.645C35.2174 352.09 22.9074 344.536 10.5964 336.982C10.1624 336.72 10.0244 336.155 10.2864 335.722L17.6584 323.537Z" fill="#FFC001"/>
<path d="M46.2693 361.821L9.84233 339.781C9.02933 339.289 8.76833 338.231 9.26033 337.417L10.2483 335.783L49.6213 359.605L48.6333 361.239C48.1413 362.052 47.0833 362.313 46.2693 361.821Z" fill="#5D1113"/>
<path d="M24.0954 316.707L40.7854 326.805L39.3814 328.796L22.8364 318.786L24.0954 316.707Z" fill="#FF7769"/>
<path d="M82.5355 123.866C82.1405 128.356 81.0565 134.895 77.9405 142.187C74.7805 149.581 70.7325 154.938 67.7275 158.338C57.1795 150.389 46.6315 142.44 36.0845 134.491" stroke="#262626" stroke-width="0.4147" stroke-miterlimit="10" stroke-linecap="round" stroke-linejoin="round"/>
<path d="M115.697 122.468C117.313 126.33 118.816 130.654 120.022 135.424C124.418 152.815 122.857 168.196 120.714 178.563" stroke="#262626" stroke-width="0.4147" stroke-miterlimit="10" stroke-linecap="round" stroke-linejoin="round"/>
<path d="M73.2545 110.615C73.2545 110.615 65.4805 111.155 60.2065 115.397C54.9325 119.639 47.7095 126.977 47.7095 126.977" stroke="white" stroke-width="0.4147" stroke-miterlimit="10" stroke-linecap="round" stroke-linejoin="round"/>
<path d="M58.0853 151.072C55.1633 155.287 53.5763 159.207 52.6873 161.961C51.2933 166.284 50.9703 169.755 50.8843 170.835C50.6673 173.564 50.3563 177.483 51.6983 181.984C52.2603 183.871 53.6433 187.637 53.6433 187.637" stroke="#262626" stroke-width="0.4147" stroke-miterlimit="10" stroke-linecap="round" stroke-linejoin="round"/>
<path d="M57.6226 213.294C57.7156 214.672 58.0666 216.968 59.4946 219.294C60.6406 221.159 61.9246 222.142 64.3486 223.995C64.8316 224.364 64.4606 224.059 70.4576 227.351C71.0186 227.659 72.0756 228.24 72.8326 227.817C73.4616 227.465 73.6926 226.525 73.7116 226.441C73.8146 226 73.7746 225.622 73.7306 225.39C73.8686 225.504 74.0796 225.657 74.3606 225.788C75.1196 226.141 76.5206 226.389 77.3616 225.562C78.1046 224.831 77.9746 223.69 77.9436 223.424C77.8896 222.956 77.7346 222.589 77.6096 222.352L78.6756 222.778C79.4366 223.082 80.3006 222.963 80.9506 222.463C82.1696 221.525 82.1546 219.682 80.9196 218.765L80.5526 218.492L82.5956 218.962C83.3776 219.142 84.1916 218.851 84.6826 218.217C85.3926 217.3 85.2056 215.979 84.2696 215.295L78.3366 210.964H81.2206C83.0256 210.964 84.3076 209.206 83.7556 207.487C83.6236 207.075 83.2396 206.796 82.8066 206.789C80.9646 206.757 79.4276 206.673 78.2886 206.593C75.5796 206.403 74.2006 206.3 73.0246 205.881C71.0946 205.194 70.8326 204.506 68.8596 203.817C67.1986 203.238 65.7116 203.142 64.7096 203.153L57.6226 213.294Z" fill="#F7A99C"/>
<path d="M73.7305 225.389C72.7275 224.223 71.4435 222.908 69.8375 221.601C68.4715 220.49 67.1535 219.614 65.9775 218.926" stroke="#262626" stroke-width="0.4147" stroke-miterlimit="10" stroke-linecap="round" stroke-linejoin="round"/>
<path d="M77.6092 222.351C76.6112 221.171 75.3342 219.838 73.7352 218.506C71.9662 217.034 70.2602 215.944 68.8052 215.143" stroke="#262626" stroke-width="0.4147" stroke-miterlimit="10" stroke-linecap="round" stroke-linejoin="round"/>
<path d="M80.5521 218.49C79.2711 217.217 77.6291 215.794 75.5841 214.439C74.2451 213.552 72.9601 212.843 71.7861 212.275" stroke="#262626" stroke-width="0.4147" stroke-miterlimit="10" stroke-linecap="round" stroke-linejoin="round"/>
<path d="M68.8052 299.912L92.9952 255.947C95.0952 252.13 96.1062 247.809 95.9162 243.457L95.0992 224.678" stroke="#262626" stroke-width="0.4147" stroke-miterlimit="10" stroke-linecap="round" stroke-linejoin="round"/>
<path d="M156.382 212.94C155.056 213.706 153.36 213.251 152.594 211.925L148.396 204.653C147.63 203.327 148.085 201.631 149.411 200.865C150.737 200.099 152.433 200.554 153.199 201.88L157.398 209.152C158.162 210.478 157.708 212.174 156.382 212.94Z" fill="#F7A99C"/>
<path d="M160.651 211.543C159.325 212.309 157.629 211.854 156.863 210.528L151.709 201.601C150.943 200.275 151.398 198.579 152.724 197.813C154.05 197.047 155.746 197.502 156.512 198.828L161.666 207.755C162.432 209.081 161.977 210.777 160.651 211.543Z" fill="#F7A99C"/>
<path d="M164.849 209.22C163.523 209.986 161.827 209.531 161.061 208.205L155.654 198.84C154.888 197.514 155.343 195.818 156.669 195.052C157.995 194.286 159.691 194.741 160.457 196.067L165.864 205.432C166.63 206.759 166.175 208.455 164.849 209.22Z" fill="#F7A99C"/>
<path d="M167.54 207.72C166.092 208.219 164.514 207.45 164.015 206.002L160.492 195.778C159.993 194.33 160.762 192.752 162.21 192.253C163.658 191.754 165.236 192.523 165.735 193.971L169.258 204.195C169.757 205.643 168.988 207.221 167.54 207.72Z" fill="#F7A99C"/>
<path d="M152.423 198.019C151.787 198.68 151.562 199.279 151.468 199.636C151.015 201.341 152.353 203.378 155.048 207.384C155.661 208.295 156.57 209.594 156.57 209.594V209.592" stroke="#262626" stroke-width="0.4147" stroke-miterlimit="10" stroke-linecap="round" stroke-linejoin="round"/>
<path d="M156.67 195.052C156.22 195.489 155.697 196.145 155.51 197.029C155.267 198.178 155.745 198.998 158.363 203.531C159.229 205.03 160.443 207.133 160.443 207.133" stroke="#262626" stroke-width="0.4147" stroke-miterlimit="10" stroke-linecap="round" stroke-linejoin="round"/>
<path d="M161.447 192.791C161.152 193.07 160.71 193.573 160.562 194.293C160.418 194.989 160.614 195.567 160.699 195.82C161.147 197.148 162.15 200.178 163.535 204.195" stroke="#262626" stroke-width="0.4147" stroke-miterlimit="10" stroke-linecap="round" stroke-linejoin="round"/>
<path opacity="0.5" d="M251.248 226.116C281.063 214.26 295.622 180.479 283.766 150.664C271.91 120.85 238.129 106.291 208.314 118.147C178.499 130.003 163.94 163.784 175.796 193.599C187.652 223.414 221.433 237.972 251.248 226.116Z" fill="#CDEBF5"/>
<path d="M229.785 107.236C193.936 107.236 164.875 136.297 164.875 172.146C164.875 207.995 193.936 237.056 229.785 237.056C265.634 237.056 294.695 207.995 294.695 172.146C294.695 136.297 265.634 107.236 229.785 107.236ZM229.785 226.516C199.757 226.516 175.415 202.174 175.415 172.146C175.415 142.118 199.757 117.776 229.785 117.776C259.813 117.776 284.155 142.118 284.155 172.146C284.155 202.174 259.813 226.516 229.785 226.516Z" fill="#4450E4"/>
<path d="M241.265 210.495C240.578 209.882 240.124 209.008 240.064 208.017C239.942 206.021 241.46 204.305 243.456 204.183C247.082 203.961 250.664 202.95 253.817 201.259C257.34 199.37 259.64 197.031 260.697 195.805C261.95 194.35 264.558 191.324 265.507 186.837C266.827 180.588 264.075 175.196 262.831 173.167C261.785 171.463 262.32 169.234 264.024 168.189C265.728 167.144 267.96 167.679 269.003 169.382C271.112 172.82 274.381 179.854 272.59 188.334C271.257 194.641 267.699 198.769 266.18 200.532C264.488 202.494 261.564 205.32 257.24 207.64C253.173 209.821 248.56 211.125 243.899 211.41C242.893 211.47 241.96 211.116 241.265 210.495Z" fill="white"/>
<path d="M195.035 123.538C199.094 120.511 212.43 111.36 231.723 111.614C250.381 111.86 263.167 120.752 267.264 123.867" stroke="#262626" stroke-width="0.4147" stroke-miterlimit="10" stroke-linecap="round" stroke-linejoin="round"/>
<path d="M131.201 40.4443C131.816 37.2523 132.555 34.7293 133.417 32.8763C134.279 31.0223 135.57 29.4203 137.289 28.0683C138.288 27.2513 139.369 26.5903 140.533 26.0843C141.695 25.5793 142.785 25.0183 143.803 24.4003C144.818 23.7833 145.718 23.0443 146.502 22.1853C147.285 21.3263 147.828 20.1133 148.13 18.5433C148.641 15.8933 148.268 13.8993 147.01 12.5623C145.752 11.2263 144.122 10.3643 142.122 9.97927C139.254 9.42627 137.125 9.84528 135.737 11.2313C134.346 12.6193 133.256 14.6393 132.464 17.2913L121.996 15.2733C122.507 12.6233 123.403 10.2983 124.686 8.30128C125.968 6.30528 127.554 4.70228 129.442 3.49528C131.329 2.28828 133.474 1.49528 135.876 1.11628C138.276 0.73728 140.83 0.808281 143.536 1.33028C149.378 2.45628 153.76 4.53628 156.683 7.56728C159.604 10.6003 160.55 14.7933 159.518 20.1493C159.184 21.8813 158.716 23.3613 158.115 24.5923C157.512 25.8223 156.758 26.8973 155.852 27.8173C154.945 28.7363 153.889 29.5573 152.684 30.2783C151.478 31.0003 150.133 31.7223 148.647 32.4463C147.279 33.1373 146.155 33.8043 145.273 34.4473C144.391 35.0913 143.677 35.8093 143.133 36.6013C142.587 37.3943 142.169 38.2543 141.879 39.1793C141.588 40.1053 141.328 41.1643 141.099 42.3533L131.201 40.4443ZM127.858 56.0433L129.907 45.4133L140.862 47.5243L138.813 58.1543L127.858 56.0433Z" fill="#4450E4"/>
<path d="M42.743 74.7743C42.42 72.1993 42.356 70.1013 42.551 68.4813C42.746 66.8613 43.329 65.3253 44.3 63.8733C44.856 63.0053 45.513 62.2363 46.271 61.5643C47.028 60.8933 47.717 60.1973 48.336 59.4763C48.954 58.7563 49.454 57.9723 49.836 57.1263C50.217 56.2803 50.329 55.2253 50.17 53.9593C49.902 51.8213 49.125 50.4003 47.839 49.6973C46.554 48.9943 45.103 48.7443 43.489 48.9473C41.175 49.2383 39.663 50.0823 38.953 51.4783C38.241 52.8763 37.914 54.6793 37.97 56.8883L29.526 57.9493C29.257 55.8113 29.362 53.8253 29.841 51.9913C30.32 50.1583 31.126 48.5493 32.261 47.1653C33.395 45.7823 34.826 44.6493 36.556 43.7663C38.284 42.8843 40.24 42.3063 42.422 42.0323C47.135 41.4403 50.976 41.9333 53.945 43.5113C56.913 45.0893 58.669 48.0383 59.212 52.3583C59.387 53.7553 59.399 54.9953 59.247 56.0783C59.094 57.1613 58.788 58.1643 58.328 59.0863C57.867 60.0083 57.269 60.8933 56.533 61.7393C55.796 62.5863 54.954 63.4673 54.006 64.3843C53.139 65.2473 52.451 66.0323 51.941 66.7383C51.431 67.4453 51.067 68.1673 50.85 68.9033C50.632 69.6403 50.527 70.3963 50.536 71.1703C50.544 71.9453 50.609 72.8133 50.73 73.7723L42.743 74.7743ZM44.068 87.4413L42.991 78.8653L51.828 77.7553L52.905 86.3313L44.068 87.4413Z" fill="#4450E4"/>
</svg>
